<mxfile>
    <diagram id="tUBrRk5uZLdqP6lhXKtU" name="ページ1">
        <mxGraphModel dx="1690" dy="692" grid="1" gridSize="10" guides="1" tooltips="1" connect="1" arrows="1" fold="1" page="1" pageScale="1" pageWidth="827" pageHeight="1169" math="0" shadow="0">
            <root>
                <mxCell id="0"/>
                <mxCell id="1" parent="0"/>
                <mxCell id="2" value="" style="triangle;whiteSpace=wrap;html=1;rotation=-90;sketch=1;rounded=0;fillColor=#FFFFFF;" vertex="1" parent="1">
                    <mxGeometry x="190" width="480" height="640" as="geometry"/>
                </mxCell>
                <mxCell id="3" value="" style="endArrow=none;html=1;entryX=0.249;entryY=0.877;entryDx=0;entryDy=0;entryPerimeter=0;exitX=0.249;exitY=0.125;exitDx=0;exitDy=0;exitPerimeter=0;sketch=1;" edge="1" parent="1" source="2" target="2">
                    <mxGeometry width="50" height="50" relative="1" as="geometry">
                        <mxPoint x="270" y="310" as="sourcePoint"/>
                        <mxPoint x="320" y="260" as="targetPoint"/>
                    </mxGeometry>
                </mxCell>
                <mxCell id="4" value="" style="endArrow=none;html=1;entryX=0.75;entryY=0.625;entryDx=0;entryDy=0;entryPerimeter=0;exitX=0.75;exitY=0.376;exitDx=0;exitDy=0;exitPerimeter=0;sketch=1;" edge="1" parent="1" source="2" target="2">
                    <mxGeometry width="50" height="50" relative="1" as="geometry">
                        <mxPoint x="290" y="380" as="sourcePoint"/>
                        <mxPoint x="340" y="330" as="targetPoint"/>
                    </mxGeometry>
                </mxCell>
                <mxCell id="5" value="" style="endArrow=none;dashed=1;html=1;dashPattern=1 3;strokeWidth=2;exitX=0.584;exitY=0.292;exitDx=0;exitDy=0;exitPerimeter=0;entryX=0.584;entryY=0.71;entryDx=0;entryDy=0;entryPerimeter=0;sketch=1;" edge="1" parent="1" source="2" target="2">
                    <mxGeometry width="50" height="50" relative="1" as="geometry">
                        <mxPoint x="380" y="390" as="sourcePoint"/>
                        <mxPoint x="430" y="340" as="targetPoint"/>
                    </mxGeometry>
                </mxCell>
                <mxCell id="6" value="" style="endArrow=none;dashed=1;html=1;dashPattern=1 3;strokeWidth=2;exitX=0.417;exitY=0.209;exitDx=0;exitDy=0;exitPerimeter=0;entryX=0.418;entryY=0.793;entryDx=0;entryDy=0;entryPerimeter=0;sketch=1;" edge="1" parent="1" source="2" target="2">
                    <mxGeometry width="50" height="50" relative="1" as="geometry">
                        <mxPoint x="510" y="350" as="sourcePoint"/>
                        <mxPoint x="560" y="300" as="targetPoint"/>
                    </mxGeometry>
                </mxCell>
                <mxCell id="7" value="Unit Tests" style="text;html=1;strokeColor=none;fillColor=none;align=center;verticalAlign=middle;whiteSpace=wrap;rounded=0;sketch=1;glass=0;fontSize=26;" vertex="1" parent="1">
                    <mxGeometry x="325" y="500" width="210" height="20" as="geometry"/>
                </mxCell>
                <mxCell id="8" value="Components Tests" style="text;html=1;strokeColor=none;fillColor=none;align=center;verticalAlign=middle;whiteSpace=wrap;rounded=0;sketch=1;glass=0;fontSize=26;" vertex="1" parent="1">
                    <mxGeometry x="300" y="390" width="260" height="20" as="geometry"/>
                </mxCell>
                <mxCell id="9" value="Integration Tests" style="text;html=1;strokeColor=none;fillColor=none;align=center;verticalAlign=middle;whiteSpace=wrap;rounded=0;sketch=1;glass=0;fontSize=26;" vertex="1" parent="1">
                    <mxGeometry x="325" y="310" width="210" height="20" as="geometry"/>
                </mxCell>
                <mxCell id="10" value="API Tests" style="text;html=1;strokeColor=none;fillColor=none;align=center;verticalAlign=middle;whiteSpace=wrap;rounded=0;sketch=1;glass=0;fontSize=26;" vertex="1" parent="1">
                    <mxGeometry x="325" y="230" width="210" height="20" as="geometry"/>
                </mxCell>
                <mxCell id="11" value="GUI&lt;br&gt;Tests" style="text;html=1;strokeColor=none;fillColor=none;align=center;verticalAlign=middle;whiteSpace=wrap;rounded=0;sketch=1;glass=0;fontSize=26;" vertex="1" parent="1">
                    <mxGeometry x="325" y="140" width="210" height="20" as="geometry"/>
                </mxCell>
                <mxCell id="12" value="Functional Tests" style="text;html=1;strokeColor=none;align=center;verticalAlign=middle;whiteSpace=wrap;rounded=1;glass=0;sketch=1;fontSize=26;fillColor=#FFFFFF;" vertex="1" parent="1">
                    <mxGeometry x="570" y="220" width="220" height="30" as="geometry"/>
                </mxCell>
                <mxCell id="13" value="System Tests" style="text;html=1;strokeColor=none;align=center;verticalAlign=middle;whiteSpace=wrap;rounded=1;glass=1;sketch=1;fontSize=26;fillColor=#FFFFFF;" vertex="1" parent="1">
                    <mxGeometry x="535" y="70" width="220" height="20" as="geometry"/>
                </mxCell>
                <mxCell id="14" value="" style="endArrow=classic;html=1;fontSize=26;exitX=0.67;exitY=1.082;exitDx=0;exitDy=0;exitPerimeter=0;sketch=1;" edge="1" parent="1" source="11">
                    <mxGeometry width="50" height="50" relative="1" as="geometry">
                        <mxPoint x="500" y="170" as="sourcePoint"/>
                        <mxPoint x="560" y="90" as="targetPoint"/>
                    </mxGeometry>
                </mxCell>
                <mxCell id="15" value="" style="endArrow=classic;html=1;fontSize=26;entryX=0.5;entryY=1;entryDx=0;entryDy=0;shadow=1;" edge="1" parent="1" target="12">
                    <mxGeometry width="50" height="50" relative="1" as="geometry">
                        <mxPoint x="600" y="330" as="sourcePoint"/>
                        <mxPoint x="640" y="290" as="targetPoint"/>
                    </mxGeometry>
                </mxCell>
                <mxCell id="16" value="" style="shape=flexArrow;endArrow=classic;html=1;shadow=1;fontSize=26;fillColor=#ffffff;gradientColor=#2F05FF;sketch=1;endWidth=50;endSize=12;" edge="1" parent="1">
                    <mxGeometry width="50" height="50" relative="1" as="geometry">
                        <mxPoint x="60" y="80" as="sourcePoint"/>
                        <mxPoint x="60" y="560" as="targetPoint"/>
                    </mxGeometry>
                </mxCell>
                <mxCell id="17" value="低ROI" style="text;html=1;strokeColor=none;align=center;verticalAlign=middle;whiteSpace=wrap;rounded=1;glass=1;sketch=1;fontSize=26;fillColor=#FFFFFF;" vertex="1" parent="1">
                    <mxGeometry x="-90" y="80" width="110" height="40" as="geometry"/>
                </mxCell>
                <mxCell id="18" value="高ROI" style="text;html=1;strokeColor=none;align=center;verticalAlign=middle;whiteSpace=wrap;rounded=1;glass=1;sketch=1;fontSize=26;fillColor=#FFFFFF;" vertex="1" parent="1">
                    <mxGeometry x="-90" y="500" width="110" height="40" as="geometry"/>
                </mxCell>
                <mxCell id="20" value="ROI:&lt;br style=&quot;font-size: 16px;&quot;&gt;　Return on investment&lt;br style=&quot;font-size: 16px;&quot;&gt;　費用対効果" style="text;whiteSpace=wrap;html=1;fontSize=16;sketch=1;rounded=1;fillColor=#FFFFFF;" vertex="1" parent="1">
                    <mxGeometry x="90" y="150" width="190" height="70" as="geometry"/>
                </mxCell>
            </root>
        </mxGraphModel>
    </diagram>
</mxfile>